<?xml version="1.0" encoding="UTF-8" standalone="no"?>
<svg
   xmlns:dc="http://purl.org/dc/elements/1.1/"
   xmlns:cc="http://creativecommons.org/ns#"
   xmlns:rdf="http://www.w3.org/1999/02/22-rdf-syntax-ns#"
   xmlns:svg="http://www.w3.org/2000/svg"
   xmlns="http://www.w3.org/2000/svg"
   xmlns:sodipodi="http://sodipodi.sourceforge.net/DTD/sodipodi-0.dtd"
   xmlns:inkscape="http://www.inkscape.org/namespaces/inkscape"
   width="812.26477mm"
   height="188.97763mm"
   viewBox="0 0 812.26479 188.97763"
   version="1.1"
   id="svg8"
   sodipodi:docname="Logo Clair Texte.svg"
   inkscape:version="1.0 (4035a4fb49, 2020-05-01)">
  <defs
     id="defs2">
    <marker
       inkscape:isstock="true"
       style="overflow:visible"
       id="marker1393"
       refX="0"
       refY="0"
       orient="auto"
       inkscape:stockid="Arrow1Lstart">
      <path
         transform="matrix(0.8,0,0,0.8,10,0)"
         style="fill:#5599ff;fill-opacity:1;fill-rule:evenodd;stroke:#cccccc;stroke-width:1pt;stroke-opacity:1"
         d="M 0,0 5,-5 -12.5,0 5,5 Z"
         id="path1391" />
    </marker>
    <marker
       inkscape:isstock="true"
       style="overflow:visible"
       id="marker1383"
       refX="0"
       refY="0"
       orient="auto"
       inkscape:stockid="Arrow1Lstart">
      <path
         transform="matrix(0.8,0,0,0.8,10,0)"
         style="fill:#5599ff;fill-opacity:1;fill-rule:evenodd;stroke:#cccccc;stroke-width:1pt;stroke-opacity:1"
         d="M 0,0 5,-5 -12.5,0 5,5 Z"
         id="path1381" />
    </marker>
    <marker
       inkscape:isstock="true"
       style="overflow:visible"
       id="marker1331"
       refX="0"
       refY="0"
       orient="auto"
       inkscape:stockid="Arrow1Lstart">
      <path
         transform="matrix(0.8,0,0,0.8,10,0)"
         style="fill:#ffffff;fill-opacity:1;fill-rule:evenodd;stroke:#cccccc;stroke-width:1pt;stroke-opacity:1"
         d="M 0,0 5,-5 -12.5,0 5,5 Z"
         id="path1329" />
    </marker>
    <marker
       inkscape:isstock="true"
       style="overflow:visible"
       id="marker1321"
       refX="0"
       refY="0"
       orient="auto"
       inkscape:stockid="Arrow1Lstart">
      <path
         transform="matrix(0.8,0,0,0.8,10,0)"
         style="fill:#ffffff;fill-opacity:1;fill-rule:evenodd;stroke:#cccccc;stroke-width:1pt;stroke-opacity:1"
         d="M 0,0 5,-5 -12.5,0 5,5 Z"
         id="path1319" />
    </marker>
  </defs>
  <sodipodi:namedview
     id="base"
     pagecolor="#ffffff"
     bordercolor="#666666"
     borderopacity="1.0"
     inkscape:pageopacity="0.0"
     inkscape:pageshadow="2"
     inkscape:zoom="0.24748737"
     inkscape:cx="1354.2107"
     inkscape:cy="423.16025"
     inkscape:document-units="mm"
     inkscape:current-layer="g2190"
     inkscape:document-rotation="0"
     showgrid="false"
     inkscape:snap-bbox="true"
     inkscape:bbox-paths="true"
     inkscape:bbox-nodes="true"
     inkscape:snap-bbox-edge-midpoints="true"
     inkscape:snap-bbox-midpoints="true"
     inkscape:object-paths="true"
     inkscape:snap-intersection-paths="true"
     inkscape:snap-smooth-nodes="true"
     inkscape:snap-midpoints="true"
     inkscape:snap-object-midpoints="true"
     inkscape:snap-center="true"
     inkscape:snap-text-baseline="true"
     inkscape:snap-page="true"
     inkscape:window-width="1920"
     inkscape:window-height="1009"
     inkscape:window-x="-8"
     inkscape:window-y="-8"
     inkscape:window-maximized="1"
     showborder="true" />
  <metadata
     id="metadata5">
    <rdf:RDF>
      <cc:Work
         rdf:about="">
        <dc:format>image/svg+xml</dc:format>
        <dc:type
           rdf:resource="http://purl.org/dc/dcmitype/StillImage" />
        <dc:title></dc:title>
      </cc:Work>
    </rdf:RDF>
  </metadata>
  <g
     inkscape:label="Calque 1"
     inkscape:groupmode="layer"
     id="layer1"
     transform="translate(-8.5423243,-10.689788)">
    <g
       id="g1308"
       transform="translate(-37.337148,82.404206)">
      <g
         id="g1317"
         transform="matrix(0.78669432,0,0,0.78669432,16.286353,-11.676245)">
        <g
           id="g2190">
          <g
             id="g2029">
            <ellipse
               style="fill:#ececec;stroke:#008080;stroke-width:0;stroke-linecap:round;stroke-miterlimit:4;stroke-dasharray:none;stroke-dashoffset:0;stop-color:#000000"
               id="path1310"
               cx="156.60321"
               cy="43.791653"
               rx="118.98616"
               ry="120.10868" />
            <path
               d="M 122.37135,-25.920092 A 25.524239,25.524239 0 0 0 96.847324,-0.39555226 25.524239,25.524239 0 0 0 122.37135,25.128477 25.524239,25.524239 0 0 0 147.89589,-0.39555226 25.524239,25.524239 0 0 0 122.37135,-25.920092 Z m 0,6.37739 A 19.147245,19.147245 0 0 1 141.5185,-0.39555226 19.147245,19.147245 0 0 1 122.37135,18.751598 19.147245,19.147245 0 0 1 103.2242,-0.39555226 19.147245,19.147245 0 0 1 122.37135,-19.542702 Z"
               style="opacity:0.988036;fill:#5599ff;stroke:#cccccc;stroke-width:0;stroke-linecap:round;stroke-miterlimit:4;stroke-dasharray:none;marker-start:url(#marker1383);stop-color:#000000"
               id="path842" />
            <path
               id="path860"
               style="opacity:0.988036;fill:#5599ff;stroke:#cccccc;stroke-width:0;stroke-linecap:round;stroke-miterlimit:4;stroke-dasharray:none;marker-start:url(#marker1393);stop-color:#000000"
               d="M 122.37135,62.45483 A 25.524239,25.524239 0 0 0 96.847322,87.97937 25.524239,25.524239 0 0 0 122.37135,113.5034 25.524239,25.524239 0 0 0 147.89589,87.97937 25.524239,25.524239 0 0 0 122.37135,62.45483 Z m 0,6.37739 A 19.147245,19.147245 0 0 1 141.5185,87.97937 19.147245,19.147245 0 0 1 122.37135,107.12652 19.147245,19.147245 0 0 1 103.2242,87.97937 19.147245,19.147245 0 0 1 122.37135,68.83222 Z" />
            <path
               d="m 198.90628,18.267369 a 25.524239,25.524239 0 0 0 -25.52403,25.52454 25.524239,25.524239 0 0 0 25.52403,25.524029 25.524239,25.524239 0 0 0 25.52454,-25.524029 25.524239,25.524239 0 0 0 -25.52454,-25.52454 z m 0,6.37739 a 19.147245,19.147245 0 0 1 19.14715,19.14715 19.147245,19.147245 0 0 1 -19.14715,19.14715 19.147245,19.147245 0 0 1 -19.14716,-19.14715 19.147245,19.147245 0 0 1 19.14716,-19.14715 z"
               style="opacity:0.988036;fill:#ff5555;stroke:#008080;stroke-width:0;stroke-linecap:round;stroke-miterlimit:4;stroke-dasharray:none;stop-color:#000000"
               id="path862" />
            <path
               id="path1286"
               style="fill:#4d4d4d;fill-opacity:1;stroke:#4d4d4d;stroke-width:5.36501;stroke-linecap:round;stroke-linejoin:miter;stroke-miterlimit:4;stroke-dasharray:none;stroke-dashoffset:0;stroke-opacity:1"
               d="M 169.39519,60.830021 151.88305,70.940663" />
            <path
               id="path1277"
               style="fill:#4d4d4d;fill-opacity:1;stroke:#4d4d4d;stroke-width:5.36548936;stroke-linecap:round;stroke-linejoin:miter;stroke-miterlimit:4;stroke-dasharray:none;stroke-dashoffset:0;stroke-opacity:1"
               d="m 151.88291,16.642563 17.51254,10.110865" />
          </g>
          <text
             id="text1970"
             y="123.24094"
             x="319.36243"
             style="font-style:normal;font-weight:normal;font-size:222.236px;line-height:1.25;font-family:sans-serif;fill:#000000;fill-opacity:1;stroke:none;stroke-width:1.15747"
             xml:space="preserve"><tspan
               style="font-style:normal;font-variant:normal;font-weight:normal;font-stretch:normal;font-size:222.236px;font-family:'Noto Sans';-inkscape-font-specification:'Noto Sans';stroke-width:1.15747"
               y="123.24094"
               x="319.36243"
               id="tspan1968"
               sodipodi:role="line"><tspan
                 id="tspan902"
                 style="fill:#4d4d4d;fill-opacity:1">H</tspan><tspan
                 id="tspan1988"
                 style="font-style:normal;font-variant:normal;font-weight:normal;font-stretch:normal;font-family:'Noto Sans';-inkscape-font-specification:'Noto Sans';fill:#5599ff;fill-opacity:1;stroke-width:1.15747">Y</tspan><tspan
                 id="tspan904"
                 style="fill:#4d4d4d;fill-opacity:1">DR</tspan><tspan
                 id="tspan1976"
                 style="font-style:normal;font-variant:normal;font-weight:normal;font-stretch:normal;font-family:'Noto Sans';-inkscape-font-specification:'Noto Sans';fill:#ff5757;fill-opacity:1;stroke-width:1.15747">O</tspan></tspan></text>
        </g>
        <text
           xml:space="preserve"
           style="font-style:normal;font-weight:normal;font-size:13.4529px;line-height:1.25;font-family:sans-serif;fill:#000000;fill-opacity:1;stroke:none;stroke-width:0.336323"
           x="2146.707"
           y="448.23761"
           id="text1980"><tspan
             sodipodi:role="line"
             id="tspan1978"
             x="2146.707"
             y="448.23761"
             style="stroke-width:0.336323"> </tspan></text>
      </g>
    </g>
  </g>
</svg>
